# xmcd CD database file
#
# Track frame offsets:
#	182
#	13862
#	43297
#	59977
#	76937
#	94255
#	113502
#	130127
#	142805
#	174460
#	192595
#
# Disc length: 2982 seconds
#
# Revision: 4
# Processed by: cddbd v1.4PL0 Copyright (c) Steve Scherf et al.
# Submitted via: CDex 1.50Beta7
#
DISCID=9a0ba40b
DTITLE=Toquinho and Vinícius - Personalidade
DYEAR=1900
DGENRE=Blues
TTITLE0=Meu Pranto Rolou
TTITLE1=Como Dizia O Poeta (...)
TTITLE2=Tudo Na Mais Santa Paz
TTITLE3=Como É Duro Trabalhar
TTITLE4=Escravo da Alegria
TTITLE5=Aquarela
TTITLE6=Adeus
TTITLE7=Onde Anda Você
TTITLE8=A Bençao Bahia (...)
TTITLE9=Às Cores de Abril
TTITLE10=Samba da Bênçáo
EXTD=
EXTT0=
EXTT1=Testamento\nPr  Viver Um Grande Amor\nMorena Flor\nSamba Da Volta\nRegra Tr s
EXTT2=
EXTT3=
EXTT4=
EXTT5=
EXTT6=
EXTT7=
EXTT8=Tarde Em Itapo \nTatamir \nMeu Pai Oxal \nCanto De Oxum\nMaria, Vai Com As Outras\nA B n  o Bahia
EXTT9=
EXTT10=
PLAYORDER=
